<svg xmlns="http://www.w3.org/2000/svg" width="40" height="36" viewBox="0 0 40 36">
  <defs>
    <style>
      .cls-1 {
        fill-rule: evenodd;
      }
    </style>
  </defs>
  <path id="crown" class="cls-1" d="M177.851,5083.62a9.976,9.976,0,0,0-2.78-.41c-0.449,0-.685.01-1,0.03l-0.392.02a9.337,9.337,0,0,0,.39-2.01c0-.98-0.559-1.39-1.841-1.58a16.7,16.7,0,0,0-2.941-.29,19.609,19.609,0,0,0-10.3,2.84,19.614,19.614,0,0,0-10.3-2.84,16.675,16.675,0,0,0-2.941.29c-1.282.19-1.841,0.6-1.841,1.58a9.356,9.356,0,0,0,.388,2.01l-0.39-.02c-0.313-.02-0.548-0.03-1-0.03a9.965,9.965,0,0,0-2.78.41c-1.048.37-1.541,1.21-.749,2.7,1.03,1.95,6.2,11.71,6.2,11.71l0.191-.05a57.945,57.945,0,0,1,12.736-1.22h0.946a57.934,57.934,0,0,1,12.736,1.22l0.193,0.05s5.175-9.76,6.2-11.71c0.79-1.49.3-2.33-.749-2.7M148,5095.78c-0.3.05-1.088,0.19-1.368,0.25l-0.156.03-5.164-10.78a7.662,7.662,0,0,1,3.565-.26l3.323,10.73Zm9.984-.75H157.3a64.3,64.3,0,0,0-6.624.39l-0.741.08-0.139-.47-3.553-13.48a17.293,17.293,0,0,1,11.74,2.14v11.34Zm10.066,0.47-0.739-.08a64.342,64.342,0,0,0-6.625-.39H160v-11.34a17.289,17.289,0,0,1,11.739-2.14l-3.552,13.48Zm3.462,0.56-0.156-.03c-0.28-.06-1.07-0.2-1.369-0.25l-0.2-.03,3.322-10.73a7.658,7.658,0,0,1,3.564.26Zm-11.642-23v-2.12h2.135v-1.81H159.87V5067h-1.753v2.13h-2.134v1.81h2.134v2.12a3.072,3.072,0,0,0-2.788,2.74c0,1.57,1.61,2.88,3.633,2.88s3.7-1.31,3.7-2.88a3.083,3.083,0,0,0-2.788-2.74m-0.908,4.15c-1.127,0-2.05-.62-2.05-1.41a1.84,1.84,0,0,1,2.05-1.46A1.82,1.82,0,0,1,161,5075.8c0,0.79-.9,1.41-2.033,1.41m0.139,24.42c9.494,0,13.176,1.38,13.176,1.38l0.128-2s-3.719-1.24-13.305-1.24-13.516,1.24-13.516,1.24l0.126,2s3.9-1.38,13.391-1.38" transform="translate(-139 -5067)"/>
</svg>
